<svg width="1268" height="500" viewBox="0 0 1268 500" fill="none" xmlns="http://www.w3.org/2000/svg">
<path d="M385.389 198.953C393.679 198.953 400.441 197.753 405.677 195.353C411.131 192.736 415.276 189.354 418.112 185.209C421.166 180.846 423.238 175.938 424.329 170.484C425.42 164.812 425.965 159.031 425.965 153.141V147.251H469.16V153.141C469.16 180.41 461.961 201.462 447.562 216.296C433.383 230.912 412.658 238.22 385.389 238.22C359.21 238.22 338.486 230.257 323.215 214.332C307.944 198.408 300.309 175.175 300.309 144.633V93.5864C300.309 78.9703 302.272 65.8813 306.199 54.3194C310.126 42.5393 315.798 32.7225 323.215 24.8691C330.632 16.7976 339.577 10.6894 350.048 6.54452C360.519 2.18151 372.3 0 385.389 0C398.914 0 410.913 1.96335 421.384 5.89005C431.855 9.81676 440.582 15.4887 447.562 22.9058C454.762 30.3229 460.106 39.267 463.597 49.7382C467.305 60.2094 469.16 71.9895 469.16 85.0785V90.9686H425.965V85.0785C425.965 79.6248 425.311 74.171 424.002 68.7173C422.693 63.2635 420.511 58.3551 417.457 53.9921C414.403 49.6292 410.258 46.1388 405.023 43.5209C399.787 40.685 393.242 39.267 385.389 39.267C378.19 39.267 371.972 40.685 366.737 43.5209C361.501 46.1388 357.138 49.8473 353.647 54.6466C350.157 59.2277 347.539 64.6815 345.794 71.0079C344.267 77.1161 343.503 83.5515 343.503 90.3141V147.906C343.503 155.323 344.267 162.195 345.794 168.521C347.321 174.629 349.721 179.974 352.993 184.555C356.265 189.136 360.519 192.736 365.755 195.353C371.209 197.753 377.753 198.953 385.389 198.953Z" fill="#DEDEDE"/>
<path d="M624.039 184.555H546.158L535.033 233.639H489.875L544.522 4.58115H625.675L680.323 233.639H635.165L624.039 184.555ZM555.321 143.325H614.55L588.044 26.178H582.154L555.321 143.325Z" fill="#DEDEDE"/>
<path d="M816.55 212.042H822.44V4.58115H865.635V233.639H781.209L754.376 26.178H748.486V233.639H705.292V4.58115H789.717L816.55 212.042Z" fill="#DEDEDE"/>
<path d="M901.403 93.5864C901.403 63.918 908.82 40.9031 923.654 24.5419C938.707 8.18063 959.431 0 985.828 0C1012.22 0 1032.84 8.18063 1047.67 24.5419C1062.73 40.9031 1070.25 63.918 1070.25 93.5864V144.633C1070.25 175.175 1062.73 198.408 1047.67 214.332C1032.84 230.257 1012.22 238.22 985.828 238.22C959.431 238.22 938.707 230.257 923.654 214.332C908.82 198.408 901.403 175.175 901.403 144.633V93.5864ZM985.828 198.953C993.681 198.953 1000.23 197.753 1005.46 195.353C1010.7 192.736 1014.95 189.136 1018.22 184.555C1021.5 179.974 1023.79 174.52 1025.1 168.194C1026.4 161.867 1027.06 154.887 1027.06 147.251V90.9686C1027.06 83.7696 1026.3 77.007 1024.77 70.6806C1023.24 64.3543 1020.84 58.9005 1017.57 54.3194C1014.3 49.7382 1010.04 46.1388 1004.81 43.5209C999.572 40.685 993.245 39.267 985.828 39.267C978.411 39.267 972.084 40.685 966.849 43.5209C961.613 46.1388 957.359 49.7382 954.087 54.3194C950.814 58.9005 948.415 64.3543 946.888 70.6806C945.36 77.007 944.597 83.7696 944.597 90.9686V147.251C944.597 154.887 945.251 161.867 946.56 168.194C947.869 174.52 950.16 179.974 953.432 184.555C956.704 189.136 960.958 192.736 966.194 195.353C971.43 197.753 977.974 198.953 985.828 198.953Z" fill="#DEDEDE"/>
<path d="M1217.28 212.042H1223.17V4.58115H1266.36V233.639H1181.94L1155.11 26.178H1149.22V233.639H1106.02V4.58115H1190.45L1217.28 212.042Z" fill="#DEDEDE"/>
<path d="M369.682 379.581H467.851V495.419H428.583V469.895H422.693C420.075 478.403 415.058 485.602 407.64 491.492C400.223 497.164 389.097 500 374.263 500C363.792 500 353.975 498.037 344.812 494.11C335.65 490.183 327.687 484.402 320.924 476.767C314.162 468.914 308.817 459.315 304.89 447.971C300.963 436.409 299 422.993 299 407.723V354.058C299 339.223 301.072 326.134 305.217 314.791C309.58 303.229 315.471 293.521 322.888 285.668C330.523 277.814 339.577 271.924 350.048 267.997C360.519 263.853 372.081 261.78 384.734 261.78C397.824 261.78 409.495 263.962 419.748 268.325C430.001 272.469 438.727 278.359 445.926 285.995C453.125 293.412 458.579 302.247 462.288 312.5C465.996 322.535 467.851 333.333 467.851 344.895V348.822H424.656V344.895C424.656 331.152 421.057 320.79 413.858 313.809C406.877 306.61 396.951 303.01 384.08 303.01C371.863 303.01 361.828 307.155 353.975 315.445C346.121 323.517 342.194 337.478 342.194 357.33V405.759C342.194 441.099 356.592 458.77 385.389 458.77C398.26 458.77 407.968 455.388 414.512 448.626C421.275 441.645 424.656 432.373 424.656 420.811H369.682V379.581Z" fill="#DEDEDE"/>
<path d="M667.561 266.361V416.23C667.561 442.408 660.58 462.914 646.618 477.749C632.874 492.583 612.368 500 585.099 500C557.83 500 537.214 492.583 523.252 477.749C509.509 462.914 502.637 442.408 502.637 416.23V266.361H545.831V416.23C545.831 429.756 548.994 440.336 555.321 447.971C561.647 455.606 571.573 459.424 585.099 459.424C598.624 459.424 608.55 455.606 614.877 447.971C621.203 440.336 624.366 429.756 624.366 416.23V266.361H667.561Z" fill="#DEDEDE"/>
<path d="M824.404 446.335H746.523L735.397 495.419H690.239L744.887 266.361H826.04L880.687 495.419H835.53L824.404 446.335ZM755.685 405.105H814.914L788.408 287.958H782.518L755.685 405.105Z" fill="#DEDEDE"/>
<path d="M1063.38 495.419H1020.19V426.702C1020.19 421.466 1018.77 417.212 1015.93 413.94C1013.32 410.668 1008.84 409.031 1002.52 409.031H952.778V495.419H909.583V266.361H997.281C1009.06 266.361 1019.42 267.997 1028.37 271.27C1037.31 274.542 1044.73 279.123 1050.62 285.013C1056.73 290.685 1061.31 297.339 1064.36 304.974C1067.64 312.609 1069.27 320.79 1069.27 329.516V337.369C1069.27 346.75 1066.76 355.585 1061.75 363.874C1056.73 371.946 1048.98 378.163 1038.51 382.526V388.416C1046.15 389.289 1052.15 392.234 1056.51 397.251C1061.09 402.269 1063.38 408.595 1063.38 416.23V495.419ZM952.778 367.801H994.009C1004.48 367.801 1012.44 365.401 1017.9 360.602C1023.35 355.585 1026.08 348.604 1026.08 339.66V335.733C1026.08 328.098 1023.35 321.553 1017.9 316.099C1012.44 310.428 1004.48 307.592 994.009 307.592H952.778V367.801Z" fill="#DEDEDE"/>
<path d="M1101.11 266.361H1184.23C1212.59 266.361 1233.64 273.015 1247.38 286.322C1261.13 299.411 1268 319.808 1268 347.513V414.267C1268 441.972 1261.13 462.478 1247.38 475.785C1233.64 488.874 1212.59 495.419 1184.23 495.419H1101.11V453.861H1122.71V307.592H1101.11V266.361ZM1184.23 454.188C1199.28 454.188 1209.75 450.698 1215.64 443.717C1221.75 436.518 1224.81 425.393 1224.81 410.34V347.513C1224.81 334.424 1221.75 324.498 1215.64 317.736C1209.75 310.973 1199.28 307.592 1184.23 307.592H1165.9V454.188H1184.23Z" fill="#DEDEDE"/>
<path d="M100.243 250.947C119.375 250.961 138.195 250.567 156.985 251.149C175.912 251.735 194.828 251.543 213.745 251.475C230.214 251.415 245.38 263.009 248.338 280.666C248.846 283.699 249.077 286.731 249.076 289.812C249.058 340.335 249.094 390.858 249.092 441.381C249.092 458.384 236.087 471.661 219.155 471.82C216.177 471.848 215.008 472.662 215.093 475.786C215.281 482.665 215.047 489.554 215.193 496.435C215.252 499.204 214.221 500.003 211.544 500C156.842 499.938 102.139 499.925 47.437 499.997C44.2289 500.001 43.5311 498.716 43.5506 495.833C43.6475 481.574 43.6958 467.313 43.5102 453.056C43.464 449.507 44.5217 448.455 48.079 448.462C99.9539 448.562 151.829 448.529 203.704 448.528C211.727 448.528 211.727 448.529 211.723 440.45C211.721 436.762 211.533 433.062 211.769 429.39C211.993 425.89 210.777 424.525 207.175 424.65C200.914 424.868 194.629 424.498 188.373 424.794C184.461 424.978 181.498 423.631 178.822 421.028C170.105 412.548 161.311 404.146 152.632 395.629C137.728 381.003 122.733 366.472 107.872 351.801C94.242 338.345 79.9876 325.516 66.5028 311.896C65.9099 311.297 65.3434 310.612 64.3648 310.592C62.7269 311.4 63.2324 312.922 63.2298 314.169C63.1967 330.027 63.3013 345.885 63.1419 361.741C63.1063 365.282 64.5207 366.184 67.7171 366.138C75.8285 366.02 83.9429 366.093 92.056 366.12C106.04 366.167 114.088 374.183 114.108 388.062C114.115 393.348 114.13 398.634 114.104 403.919C114.048 415.549 105.286 424.509 93.6476 424.687C85.6592 424.809 77.6636 424.876 69.6781 424.682C58.856 424.419 48.0714 425.383 37.2641 425.401C15.0377 425.438 0.0131976 410.405 0.00666899 388.188C-0.0032589 354.506 -0.00181826 320.824 0.00910036 287.142C0.0157418 266.616 15.6482 250.898 36.0949 250.841C41.9953 250.824 47.9282 251.225 53.7877 250.736C60.2072 250.199 64.9007 252.839 69.1664 257.108C79.5921 267.54 90.0364 277.954 100.531 288.317C116.005 303.599 131.602 318.756 147.013 334.101C163.463 350.479 179.745 367.026 196.13 383.469C199.946 387.298 203.874 391.015 207.776 394.758C208.555 395.505 209.289 396.414 210.636 396.352C212.131 395.547 211.692 394.048 211.698 392.786C211.738 384.919 211.697 377.051 211.727 369.184C211.733 367.398 211.525 365.81 210.008 364.564C198.86 355.416 189.358 344.576 179.176 334.436C157.404 312.755 135.771 290.935 113.963 269.29C109.253 264.616 104.27 260.207 100.079 255.053C99.3143 254.112 96.3419 252.423 100.243 250.947Z" fill="#DEDEDE"/>
<path d="M45.0036 127.181C45.0034 99.1569 44.9522 71.5019 45.0379 43.8474C45.0605 36.5565 46.1647 29.3811 49.6884 22.8565C57.574 8.25527 69.6515 0.155507 86.4689 0.0709948C112.034 -0.0574627 137.6 0.0243378 163.165 0.0409743C181.338 0.0527936 198.811 14.9891 201.903 32.8896C202.93 38.8386 203.345 44.7736 203.334 50.7994C203.268 85.2142 203.332 119.629 203.275 154.044C203.266 159.243 202.503 164.296 198.836 168.47C195.223 172.581 190.89 174.809 185.309 174.701C177.985 174.56 179.071 174.592 179.024 181.123C178.974 188.128 179.026 195.134 179.011 202.14C178.97 222.316 165.401 235.877 145.216 235.899C130.713 235.914 116.209 235.924 101.706 235.888C84.8187 235.847 72.1418 224.389 69.9969 207.569C68.8088 198.252 69.7174 188.926 69.4109 179.61C69.2633 175.124 68.9454 174.279 64.5992 174.768C52.2788 176.154 44.8807 166.652 44.9875 154.465C45.066 145.494 45.0035 136.521 45.0036 127.181ZM136.237 198.338C136.238 207.561 136.238 207.561 145.329 207.444C145.697 207.44 146.065 207.435 146.433 207.426C154.918 207.208 154.918 207.208 154.901 198.752C154.881 188.63 154.872 188.621 145.019 188.711C136.241 188.791 136.241 188.791 136.237 198.338Z" fill="#DEDEDE"/>
</svg>
