<svg width="250" height="500" viewBox="0 0 250 500" fill="none" xmlns="http://www.w3.org/2000/svg">
<path d="M100.243 250.947C119.375 250.961 138.195 250.567 156.985 251.149C175.912 251.735 194.828 251.543 213.745 251.475C230.214 251.415 245.38 263.009 248.338 280.666C248.846 283.699 249.077 286.731 249.076 289.812C249.058 340.335 249.094 390.858 249.092 441.381C249.092 458.384 236.087 471.661 219.155 471.82C216.177 471.848 215.008 472.662 215.093 475.786C215.281 482.665 215.047 489.554 215.193 496.435C215.252 499.204 214.221 500.003 211.544 500C156.842 499.938 102.139 499.925 47.437 499.997C44.2289 500.001 43.5311 498.716 43.5506 495.833C43.6475 481.574 43.6958 467.313 43.5102 453.056C43.464 449.507 44.5217 448.455 48.079 448.462C99.9539 448.562 151.829 448.529 203.704 448.528C211.727 448.528 211.727 448.529 211.723 440.45C211.721 436.762 211.533 433.062 211.769 429.39C211.993 425.89 210.777 424.525 207.175 424.65C200.914 424.868 194.629 424.498 188.373 424.794C184.461 424.978 181.498 423.631 178.822 421.028C170.105 412.548 161.311 404.146 152.632 395.629C137.728 381.003 122.733 366.472 107.872 351.801C94.242 338.345 79.9876 325.516 66.5028 311.896C65.9099 311.297 65.3434 310.612 64.3648 310.592C62.7269 311.4 63.2324 312.922 63.2298 314.169C63.1967 330.027 63.3013 345.885 63.1419 361.741C63.1063 365.282 64.5207 366.184 67.7171 366.138C75.8285 366.02 83.9429 366.093 92.056 366.12C106.04 366.167 114.088 374.183 114.108 388.062C114.115 393.348 114.13 398.634 114.104 403.919C114.048 415.549 105.286 424.509 93.6476 424.687C85.6592 424.809 77.6636 424.876 69.6781 424.682C58.856 424.419 48.0714 425.383 37.2641 425.401C15.0377 425.438 0.0131976 410.405 0.00666899 388.188C-0.0032589 354.506 -0.00181826 320.824 0.00910036 287.142C0.0157418 266.616 15.6482 250.898 36.0949 250.841C41.9953 250.824 47.9282 251.225 53.7877 250.736C60.2072 250.199 64.9007 252.839 69.1664 257.108C79.5921 267.54 90.0364 277.954 100.531 288.317C116.005 303.599 131.602 318.756 147.013 334.101C163.463 350.479 179.745 367.026 196.13 383.469C199.946 387.298 203.874 391.015 207.776 394.758C208.555 395.505 209.289 396.414 210.636 396.352C212.131 395.547 211.692 394.048 211.698 392.786C211.738 384.919 211.697 377.051 211.727 369.184C211.733 367.398 211.525 365.81 210.008 364.564C198.86 355.416 189.358 344.576 179.176 334.436C157.404 312.755 135.771 290.935 113.963 269.29C109.253 264.616 104.27 260.207 100.079 255.053C99.3143 254.112 96.3419 252.423 100.243 250.947Z" fill="#DEDEDE"/>
<path d="M45.0036 127.181C45.0034 99.1569 44.9522 71.5019 45.0379 43.8474C45.0605 36.5565 46.1647 29.3811 49.6884 22.8565C57.574 8.25527 69.6515 0.155507 86.4689 0.0709948C112.034 -0.0574627 137.6 0.0243378 163.165 0.0409743C181.338 0.0527936 198.811 14.9891 201.903 32.8896C202.93 38.8386 203.345 44.7736 203.334 50.7994C203.268 85.2142 203.332 119.629 203.275 154.044C203.266 159.243 202.503 164.296 198.836 168.47C195.223 172.581 190.89 174.809 185.309 174.701C177.985 174.56 179.071 174.592 179.024 181.123C178.974 188.128 179.026 195.134 179.011 202.14C178.97 222.316 165.401 235.877 145.216 235.899C130.713 235.914 116.209 235.924 101.706 235.888C84.8187 235.847 72.1418 224.389 69.9969 207.569C68.8088 198.252 69.7174 188.926 69.4109 179.61C69.2633 175.124 68.9454 174.279 64.5992 174.768C52.2788 176.154 44.8807 166.652 44.9875 154.465C45.066 145.494 45.0035 136.521 45.0036 127.181ZM136.237 198.338C136.238 207.561 136.238 207.561 145.329 207.444C145.697 207.44 146.065 207.435 146.433 207.426C154.918 207.208 154.918 207.208 154.901 198.752C154.881 188.63 154.872 188.621 145.019 188.711C136.241 188.791 136.241 188.791 136.237 198.338Z" fill="#DEDEDE"/>
</svg>
