<svg width="1080" height="1080" viewBox="0 0 1080 1080" fill="none" xmlns="http://www.w3.org/2000/svg">
<path d="M226.068 577.058C226.068 465.991 225.865 356.386 226.205 246.782C226.294 217.886 230.673 189.447 244.648 163.588C275.922 105.718 323.821 73.6163 390.518 73.2814C491.907 72.7723 593.301 73.0965 694.692 73.1624C766.765 73.2092 836.061 132.407 848.324 203.352C852.399 226.93 854.044 250.453 853.999 274.335C853.74 410.732 853.993 547.13 853.765 683.527C853.73 704.132 850.706 724.161 836.162 740.7C821.832 756.996 804.648 765.827 782.514 765.399C753.467 764.837 757.776 764.966 757.59 790.848C757.39 818.614 757.595 846.381 757.538 874.148C757.375 954.111 703.559 1007.86 623.508 1007.94C565.987 1008.01 508.467 1008.04 450.947 1007.9C383.974 1007.74 333.697 962.329 325.191 895.664C320.479 858.737 324.082 821.777 322.867 784.854C322.281 767.074 321.021 763.725 303.784 765.663C254.922 771.156 225.581 733.498 226.005 685.197C226.316 649.641 226.068 614.079 226.068 577.058ZM587.897 859.08C587.9 895.632 587.9 895.632 623.954 895.171C625.413 895.152 626.874 895.133 628.333 895.096C661.984 894.232 661.984 894.232 661.918 860.718C661.839 820.605 661.803 820.569 622.725 820.925C587.913 821.243 587.913 821.243 587.897 859.08Z" fill="#0C0C0C"/>
</svg>
