<svg width="3126" height="1885" viewBox="0 0 3126 1885" fill="none" xmlns="http://www.w3.org/2000/svg">
<g clip-path="url(#clip0_15_606)">
<g opacity="0.6" clip-path="url(#clip1_15_606)">
<g opacity="0.7">
<path opacity="0.11" d="M2695.45 376.738C2697.67 377.451 2700.05 376.229 2700.76 374.009C2701.47 371.788 2700.25 369.41 2698.03 368.697C2695.81 367.983 2693.43 369.205 2692.72 371.426C2692 373.647 2693.23 376.025 2695.45 376.738Z" fill="white"/>
<path d="M2701.39 403.018C2703.05 403.553 2704.84 402.637 2705.37 400.972C2705.91 399.307 2704.99 397.524 2703.33 396.989C2701.66 396.454 2699.88 397.37 2699.34 399.035C2698.81 400.7 2699.72 402.483 2701.39 403.018Z" fill="white"/>
<path d="M2781.27 382.14C2782.94 382.674 2784.72 381.758 2785.26 380.093C2785.79 378.428 2784.88 376.645 2783.21 376.11C2781.55 375.575 2779.76 376.492 2779.23 378.157C2778.69 379.822 2779.61 381.605 2781.27 382.14Z" fill="white"/>
<path d="M2611.75 323.246C2613.41 323.78 2615.19 322.864 2615.73 321.199C2616.26 319.534 2615.35 317.751 2613.68 317.216C2612.02 316.681 2610.23 317.597 2609.7 319.262C2609.16 320.927 2610.08 322.711 2611.75 323.246Z" fill="white"/>
<path opacity="0.11" d="M2496.77 339.525C2498.99 340.238 2501.37 339.016 2502.08 336.796C2502.8 334.575 2501.57 332.197 2499.35 331.484C2497.13 330.77 2494.76 331.992 2494.04 334.213C2493.33 336.434 2494.55 338.812 2496.77 339.525Z" fill="white"/>
<path d="M2472.8 283.051C2473.91 283.408 2475.1 282.797 2475.45 281.688C2475.81 280.578 2475.2 279.39 2474.09 279.034C2472.98 278.677 2471.79 279.288 2471.43 280.397C2471.08 281.507 2471.69 282.695 2472.8 283.051Z" fill="white"/>
<path d="M2664.23 453.16C2665.34 453.516 2666.53 452.906 2666.88 451.796C2667.24 450.687 2666.63 449.498 2665.52 449.142C2664.41 448.786 2663.22 449.397 2662.87 450.506C2662.51 451.615 2663.12 452.803 2664.23 453.16Z" fill="white"/>
<path d="M3102.34 593.882C3103.45 594.238 3104.63 593.628 3104.99 592.519C3105.35 591.409 3104.74 590.221 3103.63 589.865C3102.52 589.509 3101.33 590.119 3100.97 591.228C3100.62 592.338 3101.23 593.526 3102.34 593.882Z" fill="white"/>
<path d="M2011.16 187.987C2012.27 188.343 2013.46 187.732 2013.81 186.623C2014.17 185.514 2013.56 184.325 2012.45 183.969C2011.34 183.613 2010.15 184.223 2009.79 185.333C2009.44 186.442 2010.05 187.63 2011.16 187.987Z" fill="white"/>
<path opacity="0.11" d="M2015.88 69.7939C2016.99 70.1502 2018.18 69.5396 2018.54 68.4302C2018.89 67.3209 2018.28 66.1328 2017.17 65.7765C2016.06 65.4202 2014.88 66.0306 2014.52 67.1399C2014.16 68.2493 2014.77 69.4376 2015.88 69.7939Z" fill="white"/>
<path opacity="0.11" d="M1914.63 88.2665C1915.74 88.6228 1916.93 88.0124 1917.28 86.903C1917.64 85.7936 1917.03 84.6056 1915.92 84.2493C1914.81 83.893 1913.62 84.5034 1913.27 85.6127C1912.91 86.7221 1913.52 87.9102 1914.63 88.2665Z" fill="white"/>
<path opacity="0.11" d="M1942.22 230.142C1943.32 230.498 1944.51 229.887 1944.87 228.778C1945.23 227.669 1944.62 226.48 1943.51 226.124C1942.4 225.768 1941.21 226.378 1940.85 227.488C1940.5 228.597 1941.11 229.785 1942.22 230.142Z" fill="white"/>
<path opacity="0.11" d="M2446.31 303.358C2447.42 303.714 2448.61 303.104 2448.97 301.994C2449.32 300.885 2448.71 299.697 2447.6 299.341C2446.49 298.984 2445.3 299.595 2444.95 300.704C2444.59 301.814 2445.2 303.002 2446.31 303.358Z" fill="white"/>
<path opacity="0.11" d="M2636.99 524.238C2638.1 524.594 2639.29 523.983 2639.64 522.874C2640 521.765 2639.39 520.577 2638.28 520.22C2637.17 519.864 2635.98 520.474 2635.63 521.584C2635.27 522.693 2635.88 523.881 2636.99 524.238Z" fill="white"/>
<path opacity="0.11" d="M3029.28 628.051C3030.39 628.407 3031.58 627.796 3031.93 626.687C3032.29 625.578 3031.68 624.39 3030.57 624.033C3029.46 623.677 3028.27 624.287 3027.92 625.397C3027.56 626.506 3028.17 627.694 3029.28 628.051Z" fill="white"/>
<path opacity="0.3" d="M2119.75 167.443C2120.86 167.799 2122.04 167.189 2122.4 166.08C2122.76 164.97 2122.15 163.782 2121.04 163.426C2119.93 163.069 2118.74 163.68 2118.38 164.789C2118.03 165.899 2118.64 167.087 2119.75 167.443Z" fill="white"/>
<path d="M2616.81 207.368C2617.92 207.725 2619.11 207.114 2619.46 206.005C2619.82 204.895 2619.21 203.707 2618.1 203.351C2616.99 202.995 2615.8 203.605 2615.45 204.714C2615.09 205.824 2615.7 207.012 2616.81 207.368Z" fill="white"/>
<path d="M2927.58 302.754C2928.69 303.11 2929.88 302.499 2930.23 301.39C2930.59 300.281 2929.98 299.092 2928.87 298.736C2927.76 298.38 2926.57 298.99 2926.22 300.1C2925.86 301.209 2926.47 302.397 2927.58 302.754Z" fill="white"/>
<path d="M2420.77 348.367C2421.88 348.723 2423.07 348.113 2423.43 347.003C2423.78 345.894 2423.17 344.706 2422.06 344.35C2420.95 343.993 2419.77 344.604 2419.41 345.713C2419.05 346.823 2419.66 348.011 2420.77 348.367Z" fill="white"/>
<path opacity="0.3" d="M2280.1 303.189C2281.2 303.545 2282.39 302.935 2282.75 301.826C2283.11 300.716 2282.5 299.528 2281.39 299.172C2280.28 298.816 2279.09 299.426 2278.73 300.535C2278.38 301.645 2278.99 302.833 2280.1 303.189Z" fill="white"/>
<path opacity="0.11" d="M2155.35 125.675C2156.46 126.032 2157.64 125.421 2158 124.312C2158.36 123.203 2157.75 122.014 2156.64 121.658C2155.53 121.302 2154.34 121.912 2153.98 123.022C2153.63 124.131 2154.24 125.319 2155.35 125.675Z" fill="white"/>
<path opacity="0.3" d="M2637.51 267.236C2638.62 267.592 2639.81 266.981 2640.16 265.872C2640.52 264.763 2639.91 263.575 2638.8 263.218C2637.69 262.862 2636.5 263.472 2636.14 264.582C2635.79 265.691 2636.4 266.879 2637.51 267.236Z" fill="white"/>
<path opacity="0.3" d="M2442.68 397.534C2443.79 397.891 2444.98 397.28 2445.34 396.171C2445.69 395.061 2445.08 393.873 2443.97 393.517C2442.86 393.161 2441.68 393.771 2441.32 394.88C2440.96 395.99 2441.57 397.178 2442.68 397.534Z" fill="white"/>
<path opacity="0.3" d="M2193.06 339.522C2194.17 339.878 2195.36 339.268 2195.72 338.158C2196.07 337.049 2195.46 335.861 2194.35 335.505C2193.24 335.148 2192.05 335.759 2191.7 336.868C2191.34 337.978 2191.95 339.166 2193.06 339.522Z" fill="white"/>
<path opacity="0.3" d="M2178.03 186.171C2179.14 186.527 2180.33 185.917 2180.68 184.808C2181.04 183.698 2180.43 182.51 2179.32 182.154C2178.21 181.797 2177.02 182.408 2176.67 183.517C2176.31 184.627 2176.92 185.815 2178.03 186.171Z" fill="white"/>
<path opacity="0.3" d="M2833.67 505.366C2835.89 506.08 2838.27 504.858 2838.98 502.637C2839.7 500.416 2838.47 498.038 2836.25 497.325C2834.03 496.611 2831.66 497.834 2830.94 500.054C2830.23 502.275 2831.45 504.653 2833.67 505.366Z" fill="white"/>
<path opacity="0.11" d="M2971.62 483.174C2973.84 483.888 2976.22 482.666 2976.93 480.445C2977.64 478.224 2976.42 475.846 2974.2 475.133C2971.98 474.42 2969.6 475.642 2968.89 477.862C2968.18 480.083 2969.4 482.461 2971.62 483.174Z" fill="white"/>
<path d="M2993.21 412.52C2994.87 413.055 2996.66 412.138 2997.19 410.474C2997.73 408.809 2996.81 407.025 2995.14 406.49C2993.48 405.956 2991.7 406.872 2991.16 408.537C2990.63 410.202 2991.54 411.985 2993.21 412.52Z" fill="white"/>
<path d="M2786.78 578.998C2788.44 579.533 2790.23 578.617 2790.76 576.952C2791.3 575.287 2790.38 573.504 2788.71 572.969C2787.05 572.434 2785.27 573.35 2784.73 575.015C2784.2 576.68 2785.11 578.464 2786.78 578.998Z" fill="white"/>
<path d="M2147.78 380.404C2149.44 380.938 2151.23 380.022 2151.76 378.357C2152.3 376.692 2151.38 374.909 2149.72 374.374C2148.05 373.84 2146.27 374.756 2145.73 376.421C2145.2 378.086 2146.11 379.869 2147.78 380.404Z" fill="white"/>
<path d="M1895.36 248.352C1897.02 248.887 1898.81 247.97 1899.34 246.305C1899.88 244.64 1898.96 242.857 1897.3 242.323C1895.63 241.788 1893.85 242.704 1893.31 244.369C1892.78 246.034 1893.69 247.817 1895.36 248.352Z" fill="white"/>
<path d="M1887.01 156.992C1888.67 157.526 1890.46 156.61 1890.99 154.945C1891.53 153.28 1890.61 151.497 1888.95 150.962C1887.28 150.427 1885.5 151.344 1884.96 153.009C1884.43 154.674 1885.34 156.457 1887.01 156.992Z" fill="white"/>
<path d="M2883.84 421.737C2885.51 422.272 2887.29 421.356 2887.83 419.691C2888.36 418.026 2887.45 416.242 2885.78 415.707C2884.12 415.173 2882.33 416.089 2881.8 417.754C2881.26 419.419 2882.18 421.202 2883.84 421.737Z" fill="white"/>
<path d="M2486.4 458.135C2488.07 458.67 2489.85 457.753 2490.39 456.088C2490.92 454.423 2490 452.64 2488.34 452.105C2486.67 451.57 2484.89 452.487 2484.36 454.152C2483.82 455.817 2484.74 457.6 2486.4 458.135Z" fill="white"/>
<path d="M2965.07 707.206C2966.74 707.74 2968.52 706.824 2969.05 705.159C2969.59 703.494 2968.67 701.711 2967.01 701.176C2965.34 700.642 2963.56 701.558 2963.02 703.223C2962.49 704.888 2963.41 706.671 2965.07 707.206Z" fill="white"/>
<path opacity="0.3" d="M2122.51 296.908C2124.73 297.621 2127.11 296.399 2127.82 294.178C2128.53 291.958 2127.31 289.58 2125.09 288.866C2122.87 288.153 2120.49 289.375 2119.78 291.596C2119.06 293.816 2120.29 296.195 2122.51 296.908Z" fill="white"/>
<path opacity="0.3" d="M1995.22 134.096C1997.44 134.809 1999.82 133.587 2000.53 131.366C2001.24 129.146 2000.02 126.768 1997.8 126.054C1995.58 125.341 1993.2 126.563 1992.49 128.784C1991.78 131.004 1993 133.383 1995.22 134.096Z" fill="white"/>
<path opacity="0.3" d="M2304.54 158.074C2306.76 158.787 2309.14 157.565 2309.85 155.344C2310.57 153.123 2309.34 150.745 2307.12 150.032C2304.9 149.319 2302.53 150.541 2301.81 152.761C2301.1 154.982 2302.32 157.36 2304.54 158.074Z" fill="white"/>
<path opacity="0.11" d="M2263.19 100.453C2265.41 101.166 2267.79 99.9439 2268.5 97.7233C2269.21 95.5026 2267.99 93.1243 2265.77 92.4111C2263.55 91.6979 2261.17 92.9199 2260.46 95.1405C2259.75 97.3611 2260.97 99.7396 2263.19 100.453Z" fill="white"/>
<path opacity="0.3" d="M2205.81 223.904C2208.03 224.618 2210.4 223.396 2211.12 221.175C2211.83 218.954 2210.61 216.576 2208.39 215.863C2206.17 215.15 2203.79 216.372 2203.08 218.592C2202.36 220.813 2203.58 223.191 2205.81 223.904Z" fill="white"/>
<path d="M2332.05 262.234C2333.71 262.769 2335.49 261.853 2336.03 260.188C2336.56 258.523 2335.65 256.74 2333.98 256.205C2332.32 255.67 2330.53 256.586 2330 258.251C2329.46 259.916 2330.38 261.7 2332.05 262.234Z" fill="white"/>
</g>
</g>
<g opacity="0.6" clip-path="url(#clip2_15_606)">
<g opacity="0.7">
<path opacity="0.11" d="M935.062 301.588C932.897 302.456 931.845 304.914 932.713 307.079C933.581 309.244 936.039 310.296 938.204 309.428C940.369 308.56 941.421 306.102 940.553 303.937C939.685 301.772 937.227 300.72 935.062 301.588Z" fill="white"/>
<path d="M913.691 285.138C912.067 285.788 911.279 287.632 911.929 289.255C912.58 290.878 914.423 291.667 916.047 291.016C917.67 290.365 918.458 288.522 917.808 286.899C917.157 285.276 915.314 284.487 913.691 285.138Z" fill="white"/>
<path d="M865.514 352.19C863.891 352.841 863.103 354.684 863.753 356.307C864.404 357.931 866.247 358.719 867.87 358.068C869.494 357.418 870.282 355.574 869.632 353.951C868.981 352.328 867.138 351.54 865.514 352.19Z" fill="white"/>
<path d="M1033.63 289.369C1032 290.019 1031.22 291.863 1031.87 293.486C1032.52 295.109 1034.36 295.898 1035.98 295.247C1037.61 294.596 1038.39 292.753 1037.74 291.13C1037.09 289.506 1035.25 288.718 1033.63 289.369Z" fill="white"/>
<path opacity="0.11" d="M1111.77 203.474C1109.6 204.342 1108.55 206.8 1109.42 208.965C1110.29 211.13 1112.75 212.182 1114.91 211.314C1117.08 210.446 1118.13 207.988 1117.26 205.823C1116.39 203.658 1113.93 202.606 1111.77 203.474Z" fill="white"/>
<path d="M1166.26 231.657C1165.18 232.09 1164.66 233.319 1165.09 234.4C1165.52 235.482 1166.75 236.007 1167.83 235.573C1168.91 235.14 1169.44 233.912 1169.01 232.83C1168.57 231.749 1167.34 231.223 1166.26 231.657Z" fill="white"/>
<path d="M910.324 222.82C909.242 223.254 908.717 224.482 909.15 225.564C909.584 226.645 910.812 227.171 911.894 226.737C912.975 226.304 913.501 225.075 913.067 223.994C912.634 222.912 911.405 222.387 910.324 222.82Z" fill="white"/>
<path d="M483.198 394.002C482.117 394.435 481.592 395.664 482.025 396.745C482.459 397.827 483.687 398.352 484.768 397.918C485.85 397.485 486.375 396.257 485.942 395.175C485.508 394.094 484.28 393.568 483.198 394.002Z" fill="white"/>
<path d="M312.06 585.403C310.979 585.836 310.453 587.064 310.887 588.146C311.32 589.228 312.549 589.753 313.63 589.319C314.712 588.886 315.237 587.658 314.803 586.576C314.37 585.495 313.142 584.969 312.06 585.403Z" fill="white"/>
<path d="M178.312 472.999C177.23 473.432 176.705 474.661 177.138 475.742C177.572 476.824 178.8 477.349 179.882 476.916C180.963 476.482 181.488 475.254 181.055 474.172C180.621 473.091 179.393 472.565 178.312 472.999Z" fill="white"/>
<path d="M1582.38 10.3055C1581.29 10.739 1580.77 11.9672 1581.2 13.0488C1581.64 14.1303 1582.86 14.6557 1583.95 14.2222C1585.03 13.7887 1585.55 12.5605 1585.12 11.4789C1584.69 10.3974 1583.46 9.87203 1582.38 10.3055Z" fill="white"/>
<path opacity="0.11" d="M1654.15 104.326C1653.07 104.759 1652.54 105.987 1652.98 107.069C1653.41 108.151 1654.64 108.676 1655.72 108.242C1656.8 107.809 1657.33 106.581 1656.89 105.499C1656.46 104.418 1655.23 103.892 1654.15 104.326Z" fill="white"/>
<path opacity="0.11" d="M1720.33 25.4966C1719.25 25.93 1718.72 27.1582 1719.15 28.2397C1719.59 29.3212 1720.82 29.8466 1721.9 29.4131C1722.98 28.9796 1723.51 27.7514 1723.07 26.6699C1722.64 25.5883 1721.41 25.0631 1720.33 25.4966Z" fill="white"/>
<path opacity="0.11" d="M1173.7 199.127C1172.62 199.56 1172.09 200.788 1172.53 201.87C1172.96 202.951 1174.19 203.477 1175.27 203.043C1176.35 202.61 1176.88 201.382 1176.44 200.3C1176.01 199.219 1174.78 198.693 1173.7 199.127Z" fill="white"/>
<path opacity="0.11" d="M885.946 150.714C884.864 151.147 884.339 152.376 884.773 153.457C885.206 154.539 886.434 155.064 887.516 154.63C888.597 154.197 889.123 152.969 888.689 151.887C888.256 150.806 887.028 150.28 885.946 150.714Z" fill="white"/>
<path opacity="0.11" d="M517.648 321.084C516.567 321.518 516.041 322.746 516.475 323.827C516.908 324.909 518.136 325.434 519.218 325.001C520.299 324.567 520.825 323.339 520.391 322.258C519.958 321.176 518.73 320.651 517.648 321.084Z" fill="white"/>
<path opacity="0.3" d="M1511.87 95.4102C1510.79 95.8437 1510.26 97.0719 1510.7 98.1534C1511.13 99.2349 1512.36 99.7603 1513.44 99.3268C1514.52 98.8933 1515.05 97.6651 1514.61 96.5836C1514.18 95.502 1512.95 94.9767 1511.87 95.4102Z" fill="white"/>
<path d="M1103.67 381.824C1102.59 382.257 1102.06 383.486 1102.49 384.567C1102.93 385.649 1104.16 386.174 1105.24 385.74C1106.32 385.307 1106.84 384.079 1106.41 382.997C1105.98 381.916 1104.75 381.39 1103.67 381.824Z" fill="white"/>
<path d="M803.514 506.67C802.433 507.104 801.907 508.332 802.341 509.414C802.774 510.495 804.003 511.02 805.084 510.587C806.166 510.153 806.691 508.925 806.258 507.844C805.824 506.762 804.596 506.237 803.514 506.67Z" fill="white"/>
<path d="M1164.64 148.172C1163.56 148.605 1163.04 149.834 1163.47 150.915C1163.9 151.997 1165.13 152.522 1166.21 152.088C1167.3 151.655 1167.82 150.427 1167.39 149.345C1166.95 148.264 1165.73 147.738 1164.64 148.172Z" fill="white"/>
<path opacity="0.3" d="M1301.79 93.2022C1300.71 93.6357 1300.18 94.8639 1300.62 95.9455C1301.05 97.027 1302.28 97.5523 1303.36 97.1188C1304.44 96.6853 1304.97 95.4572 1304.53 94.3756C1304.1 93.2941 1302.87 92.7687 1301.79 93.2022Z" fill="white"/>
<path opacity="0.11" d="M1511.11 150.283C1510.03 150.716 1509.5 151.944 1509.94 153.026C1510.37 154.107 1511.6 154.633 1512.68 154.199C1513.76 153.766 1514.29 152.538 1513.85 151.456C1513.42 150.375 1512.19 149.849 1511.11 150.283Z" fill="white"/>
<path opacity="0.3" d="M1049.53 348.934C1048.45 349.368 1047.92 350.596 1048.36 351.678C1048.79 352.759 1050.02 353.285 1051.1 352.851C1052.18 352.418 1052.71 351.189 1052.27 350.108C1051.84 349.026 1050.61 348.501 1049.53 348.934Z" fill="white"/>
<path opacity="0.3" d="M1116.4 124.295C1115.32 124.728 1114.8 125.956 1115.23 127.038C1115.66 128.119 1116.89 128.645 1117.97 128.211C1119.05 127.778 1119.58 126.55 1119.15 125.468C1118.71 124.387 1117.48 123.861 1116.4 124.295Z" fill="white"/>
<path opacity="0.3" d="M1345.62 9.6871C1344.54 10.1206 1344.02 11.3488 1344.45 12.4303C1344.88 13.5119 1346.11 14.0371 1347.19 13.6036C1348.28 13.1701 1348.8 11.942 1348.37 10.8605C1347.93 9.77897 1346.71 9.2536 1345.62 9.6871Z" fill="white"/>
<path opacity="0.3" d="M1455.05 118.173C1453.96 118.607 1453.44 119.835 1453.87 120.917C1454.31 121.998 1455.53 122.524 1456.62 122.09C1457.7 121.657 1458.22 120.428 1457.79 119.347C1457.36 118.265 1456.13 117.74 1455.05 118.173Z" fill="white"/>
<path opacity="0.3" d="M238.786 612.493C237.704 612.927 237.179 614.155 237.612 615.237C238.046 616.318 239.274 616.843 240.356 616.41C241.437 615.976 241.963 614.748 241.529 613.667C241.096 612.585 239.867 612.06 238.786 612.493Z" fill="white"/>
<path opacity="0.11" d="M586.418 566.395C585.336 566.829 584.811 568.057 585.244 569.138C585.678 570.22 586.906 570.745 587.987 570.312C589.069 569.878 589.594 568.65 589.161 567.569C588.727 566.487 587.499 565.962 586.418 566.395Z" fill="white"/>
<path opacity="0.11" d="M257.919 507.052C256.837 507.485 256.312 508.713 256.745 509.795C257.179 510.876 258.407 511.402 259.488 510.968C260.57 510.535 261.095 509.307 260.662 508.225C260.228 507.144 259 506.618 257.919 507.052Z" fill="white"/>
<path opacity="0.3" d="M746.53 290.735C744.365 291.603 743.313 294.062 744.181 296.226C745.049 298.391 747.507 299.443 749.672 298.575C751.837 297.708 752.888 295.249 752.021 293.084C751.153 290.919 748.694 289.868 746.53 290.735Z" fill="white"/>
<path opacity="0.11" d="M654.5 395.846C652.335 396.714 651.283 399.172 652.151 401.337C653.019 403.502 655.477 404.554 657.642 403.686C659.807 402.818 660.859 400.36 659.991 398.195C659.123 396.03 656.665 394.979 654.5 395.846Z" fill="white"/>
<path d="M682.944 464.024C681.32 464.675 680.532 466.518 681.182 468.141C681.833 469.764 683.676 470.553 685.3 469.902C686.923 469.252 687.711 467.408 687.061 465.785C686.41 464.162 684.567 463.373 682.944 464.024Z" fill="white"/>
<path d="M735.67 204.124C734.046 204.774 733.258 206.618 733.909 208.241C734.559 209.864 736.402 210.653 738.026 210.002C739.649 209.351 740.437 207.508 739.787 205.885C739.136 204.262 737.293 203.473 735.67 204.124Z" fill="white"/>
<path d="M69.5132 425.648C67.89 426.299 67.1016 428.142 67.7523 429.766C68.4029 431.389 70.2461 432.177 71.8693 431.527C73.4926 430.876 74.2812 429.033 73.6306 427.41C72.9799 425.786 71.1365 424.998 69.5132 425.648Z" fill="white"/>
<path d="M761.272 387.144C759.648 387.795 758.86 389.638 759.511 391.261C760.161 392.884 762.005 393.673 763.628 393.022C765.251 392.372 766.039 390.528 765.389 388.905C764.738 387.282 762.895 386.493 761.272 387.144Z" fill="white"/>
<path d="M1044.07 105.531C1042.45 106.181 1041.66 108.025 1042.31 109.648C1042.96 111.271 1044.81 112.06 1046.43 111.409C1048.05 110.758 1048.84 108.915 1048.19 107.292C1047.54 105.668 1045.7 104.88 1044.07 105.531Z" fill="white"/>
<path d="M516.582 219.169C514.959 219.82 514.17 221.663 514.821 223.287C515.471 224.91 517.315 225.698 518.938 225.048C520.561 224.397 521.35 222.554 520.699 220.93C520.048 219.307 518.205 218.519 516.582 219.169Z" fill="white"/>
<path d="M50.7996 560.497C49.1764 561.148 48.388 562.991 49.0386 564.614C49.6892 566.237 51.5324 567.026 53.1557 566.375C54.7789 565.725 55.5673 563.881 54.9167 562.258C54.2661 560.635 52.4228 559.846 50.7996 560.497Z" fill="white"/>
<path d="M46.9617 687.092C45.3385 687.743 44.5501 689.586 45.2007 691.21C45.8513 692.833 47.6946 693.621 49.3178 692.971C50.941 692.32 51.7294 690.477 51.0788 688.854C50.4282 687.23 48.5849 686.442 46.9617 687.092Z" fill="white"/>
<path opacity="0.3" d="M520.523 526.856C518.358 527.724 517.307 530.183 518.174 532.347C519.042 534.512 521.501 535.564 523.666 534.696C525.83 533.828 526.882 531.37 526.014 529.205C525.147 527.04 522.688 525.989 520.523 526.856Z" fill="white"/>
<path d="M576.296 665.956C574.131 666.824 573.08 669.282 573.947 671.447C574.815 673.612 577.274 674.664 579.439 673.796C581.603 672.928 582.655 670.47 581.787 668.305C580.92 666.14 578.461 665.088 576.296 665.956Z" fill="white"/>
<path d="M402.341 524.189C400.718 524.84 399.93 526.683 400.58 528.306C401.231 529.929 403.074 530.718 404.698 530.067C406.321 529.417 407.109 527.573 406.459 525.95C405.808 524.327 403.965 523.538 402.341 524.189Z" fill="white"/>
<path opacity="0.3" d="M337.939 638.686C335.774 639.553 334.723 642.012 335.591 644.177C336.458 646.342 338.917 647.393 341.082 646.525C343.246 645.658 344.298 643.199 343.43 641.034C342.563 638.869 340.104 637.818 337.939 638.686Z" fill="white"/>
<path opacity="0.3" d="M88.2376 577.324C86.0727 578.191 85.0211 580.65 85.8889 582.815C86.7566 584.98 89.215 586.031 91.3799 585.163C93.5448 584.296 94.5964 581.837 93.7286 579.672C92.8609 577.507 90.4025 576.456 88.2376 577.324Z" fill="white"/>
<path opacity="0.3" d="M315.9 481.533C313.735 482.401 312.684 484.859 313.551 487.024C314.419 489.189 316.878 490.24 319.043 489.373C321.207 488.505 322.259 486.046 321.391 483.882C320.524 481.717 318.065 480.665 315.9 481.533Z" fill="white"/>
<path opacity="0.3" d="M1427.14 -2.51517C1424.98 -1.64744 1423.92 0.811068 1424.79 2.97599C1425.66 5.1409 1428.12 6.19244 1430.28 5.32471C1432.45 4.45698 1433.5 1.99857 1432.63 -0.16635C1431.76 -2.33127 1429.31 -3.3829 1427.14 -2.51517Z" fill="white"/>
<path opacity="0.3" d="M1629.05 41.6293C1626.88 42.4971 1625.83 44.9556 1626.7 47.1205C1627.57 49.2854 1630.03 50.337 1632.19 49.4692C1634.36 48.6015 1635.41 46.1431 1634.54 43.9782C1633.67 41.8133 1631.21 40.7616 1629.05 41.6293Z" fill="white"/>
<path opacity="0.11" d="M192.124 603.904C189.959 604.772 188.908 607.23 189.775 609.395C190.643 611.56 193.102 612.612 195.267 611.744C197.431 610.876 198.483 608.418 197.615 606.253C196.748 604.088 194.289 603.036 192.124 603.904Z" fill="white"/>
<path opacity="0.3" d="M1375.58 220.532C1373.41 221.399 1372.36 223.858 1373.23 226.023C1374.09 228.188 1376.55 229.239 1378.72 228.371C1380.88 227.504 1381.93 225.045 1381.07 222.88C1380.2 220.715 1377.74 219.664 1375.58 220.532Z" fill="white"/>
<path opacity="0.11" d="M1444.18 238.52C1442.01 239.388 1440.96 241.846 1441.83 244.011C1442.7 246.176 1445.16 247.228 1447.32 246.36C1449.49 245.492 1450.54 243.034 1449.67 240.869C1448.8 238.704 1446.34 237.653 1444.18 238.52Z" fill="white"/>
<path opacity="0.3" d="M1409.57 106.843C1407.4 107.711 1406.35 110.169 1407.22 112.334C1408.09 114.499 1410.55 115.55 1412.71 114.683C1414.88 113.815 1415.93 111.356 1415.06 109.192C1414.19 107.027 1411.73 105.975 1409.57 106.843Z" fill="white"/>
<path d="M1287.92 157.883C1286.3 158.533 1285.51 160.377 1286.16 162C1286.81 163.623 1288.65 164.412 1290.28 163.761C1291.9 163.11 1292.69 161.267 1292.04 159.644C1291.39 158.021 1289.55 157.232 1287.92 157.883Z" fill="white"/>
<path d="M13.0032 337.604C11.9217 338.038 11.3964 339.266 11.8299 340.347C12.2634 341.429 13.4915 341.954 14.573 341.521C15.6546 341.087 16.1798 339.859 15.7463 338.778C15.3129 337.696 14.0848 337.171 13.0032 337.604Z" fill="white"/>
<path d="M429.116 116.252C428.035 116.686 427.51 117.914 427.943 118.996C428.377 120.077 429.605 120.602 430.686 120.169C431.768 119.735 432.293 118.507 431.86 117.426C431.426 116.344 430.198 115.819 429.116 116.252Z" fill="white"/>
<path opacity="0.11" d="M500.892 210.271C499.811 210.705 499.285 211.933 499.719 213.014C500.152 214.096 501.381 214.621 502.462 214.188C503.544 213.754 504.069 212.526 503.635 211.445C503.202 210.363 501.974 209.838 500.892 210.271Z" fill="white"/>
<path opacity="0.11" d="M567.07 131.442C565.988 131.876 565.463 133.104 565.897 134.186C566.33 135.267 567.558 135.793 568.64 135.359C569.721 134.926 570.247 133.697 569.813 132.616C569.38 131.534 568.152 131.009 567.07 131.442Z" fill="white"/>
<path opacity="0.11" d="M455.304 39.801C454.222 40.2345 453.697 41.4627 454.131 42.5442C454.564 43.6258 455.792 44.1512 456.874 43.7177C457.955 43.2842 458.481 42.056 458.047 40.9744C457.614 39.8929 456.385 39.3675 455.304 39.801Z" fill="white"/>
<path opacity="0.11" d="M20.4395 305.072C19.358 305.505 18.8327 306.733 19.2662 307.815C19.6997 308.896 20.9278 309.422 22.0094 308.988C23.0909 308.555 23.6163 307.327 23.1829 306.245C22.7494 305.164 21.5211 304.638 20.4395 305.072Z" fill="white"/>
<path opacity="0.3" d="M358.613 201.357C357.531 201.791 357.006 203.019 357.439 204.1C357.873 205.182 359.101 205.707 360.182 205.274C361.264 204.84 361.789 203.612 361.356 202.53C360.922 201.449 359.694 200.924 358.613 201.357Z" fill="white"/>
<path d="M11.3858 254.116C10.3043 254.549 9.77901 255.777 10.2125 256.859C10.646 257.94 11.8741 258.466 12.9556 258.032C14.0372 257.599 14.5626 256.371 14.1291 255.289C13.6956 254.207 12.4673 253.682 11.3858 254.116Z" fill="white"/>
<path opacity="0.3" d="M148.532 199.146C147.451 199.58 146.925 200.808 147.359 201.889C147.792 202.971 149.02 203.496 150.102 203.063C151.183 202.629 151.709 201.401 151.275 200.32C150.842 199.238 149.614 198.713 148.532 199.146Z" fill="white"/>
<path opacity="0.11" d="M357.851 256.23C356.77 256.663 356.244 257.891 356.678 258.973C357.111 260.054 358.34 260.58 359.421 260.146C360.503 259.713 361.028 258.485 360.595 257.403C360.161 256.322 358.933 255.796 357.851 256.23Z" fill="white"/>
<path opacity="0.3" d="M192.365 115.634C191.283 116.067 190.758 117.296 191.192 118.377C191.625 119.459 192.853 119.984 193.935 119.551C195.016 119.117 195.542 117.889 195.108 116.807C194.675 115.726 193.446 115.2 192.365 115.634Z" fill="white"/>
<path opacity="0.3" d="M301.787 224.121C300.705 224.554 300.18 225.782 300.613 226.864C301.047 227.945 302.275 228.471 303.357 228.037C304.438 227.604 304.964 226.376 304.53 225.294C304.097 224.213 302.868 223.687 301.787 224.121Z" fill="white"/>
<path d="M201.147 55.2628C199.524 55.9134 198.736 57.7568 199.386 59.38C200.037 61.0032 201.88 61.7916 203.503 61.141C205.127 60.4904 205.915 58.6472 205.264 57.024C204.614 55.4007 202.77 54.6122 201.147 55.2628Z" fill="white"/>
<path d="M479.763 -4.11653C478.14 -3.46592 477.351 -1.62255 478.002 0.000675203C478.652 1.6239 480.496 2.41229 482.119 1.76167C483.742 1.11106 484.531 -0.732206 483.88 -2.35543C483.229 -3.97866 481.386 -4.76715 479.763 -4.11653Z" fill="white"/>
<path d="M544.486 60.9021C542.863 61.5528 542.074 63.3961 542.725 65.0194C543.376 66.6426 545.219 67.431 546.842 66.7803C548.465 66.1297 549.254 64.2865 548.603 62.6632C547.953 61.04 546.109 60.2515 544.486 60.9021Z" fill="white"/>
<path opacity="0.3" d="M273.882 103.429C271.717 104.296 270.665 106.755 271.533 108.92C272.401 111.085 274.859 112.136 277.024 111.268C279.189 110.401 280.24 107.942 279.373 105.777C278.505 103.612 276.046 102.561 273.882 103.429Z" fill="white"/>
<path opacity="0.3" d="M475.776 147.571C473.611 148.438 472.56 150.897 473.427 153.062C474.295 155.227 476.753 156.278 478.918 155.41C481.083 154.543 482.135 152.084 481.267 149.919C480.4 147.754 477.941 146.703 475.776 147.571Z" fill="white"/>
<path opacity="0.3" d="M222.316 326.481C220.151 327.348 219.1 329.807 219.967 331.972C220.835 334.137 223.294 335.188 225.458 334.32C227.623 333.453 228.675 330.994 227.807 328.829C226.94 326.664 224.481 325.613 222.316 326.481Z" fill="white"/>
<path opacity="0.11" d="M290.907 344.459C288.743 345.327 287.691 347.786 288.559 349.95C289.426 352.115 291.885 353.167 294.05 352.299C296.215 351.431 297.266 348.973 296.399 346.808C295.531 344.643 293.072 343.592 290.907 344.459Z" fill="white"/>
<path opacity="0.3" d="M256.322 212.793C254.158 213.66 253.106 216.119 253.974 218.284C254.841 220.449 257.3 221.5 259.465 220.632C261.63 219.765 262.681 217.306 261.814 215.141C260.946 212.976 258.487 211.925 256.322 212.793Z" fill="white"/>
<path d="M134.662 263.83C133.039 264.48 132.251 266.324 132.901 267.947C133.552 269.57 135.395 270.358 137.018 269.708C138.641 269.057 139.43 267.214 138.779 265.591C138.129 263.967 136.285 263.179 134.662 263.83Z" fill="white"/>
</g>
</g>
</g>
<defs>
<clipPath id="clip0_15_606">
<rect width="3126" height="1885" fill="white"/>
</clipPath>
<clipPath id="clip1_15_606">
<rect width="3134.06" height="2627.29" fill="white" transform="translate(3704.65 -1506) rotate(50.7877)"/>
</clipPath>
<clipPath id="clip2_15_606">
<rect width="3134.06" height="2627.29" fill="white" transform="translate(1797.01 1525.33) rotate(-168.86)"/>
</clipPath>
</defs>
</svg>
